<?xml version="1.0" encoding="UTF-8"?>
<svg id="Layer_1" data-name="Layer 1" xmlns="http://www.w3.org/2000/svg" viewBox="0 0 721.64 379">
  <defs>
    <style>
      .cls-1 {
        fill: #fff;
      }
    </style>
  </defs>
  <g id="layer1">
    <path id="cloud" class="cls-1" d="M291.16,0c-53.21,0-106.13,21.92-143.76,59.55-23.71,23.71-41.16,53.49-50.85,85.59-23.26,4.4-45.24,15.75-61.98,32.49C12.72,199.47,0,230.16,0,261.03s12.72,61.59,34.57,83.4c21.85,21.85,52.54,34.57,83.4,34.57H646.34c19.7,0,39.32-8.1,53.24-22.06,13.95-13.95,22.06-33.54,22.06-53.24s-8.1-39.29-22.06-53.24c-13.85-13.85-33.3-21.95-52.89-22.06-3.81-35.73-20.01-70.08-45.42-95.53-29.28-29.28-70.4-46.34-111.8-46.34-10.04,0-20.08,1.02-29.95,2.96-7.22-10.75-15.43-20.86-24.59-30.02C397.29,21.92,344.4,0,291.16,0h0Z"/>
  </g>
</svg>