<?xml version="1.0" encoding="UTF-8"?>
<svg id="Calque_1" data-name="Calque 1" xmlns="http://www.w3.org/2000/svg" xmlns:xlink="http://www.w3.org/1999/xlink" viewBox="0 0 817.99 540">
  <defs>
    <style>
      .cls-1 {
        fill: #fffaff;
        stroke: #000;
        stroke-miterlimit: 10;
      }

      .cls-2 {
        fill: url(#Dégradé_sans_nom_6);
      }
    </style>
    <linearGradient id="Dégradé_sans_nom_6" data-name="Dégradé sans nom 6" x1="523.83" y1="503.49" x2="254.22" y2="36.51" gradientUnits="userSpaceOnUse">
      <stop offset="0" stop-color="#ff7bac"/>
      <stop offset=".01" stop-color="#fb7fae"/>
      <stop offset=".16" stop-color="#dfa5c7"/>
      <stop offset=".31" stop-color="#c8c5db"/>
      <stop offset=".46" stop-color="#b6ddeb"/>
      <stop offset=".62" stop-color="#a9eff6"/>
      <stop offset=".79" stop-color="#a1f9fc"/>
      <stop offset="1" stop-color="#9ffdff"/>
    </linearGradient>
  </defs>
  <g>
    <path class="cls-2" d="m389.02,539.5c-71.99,0-139.66-28.03-190.57-78.93s-78.93-118.58-78.93-190.57,28.03-139.66,78.93-190.57S317.04.5,389.02.5s139.66,28.03,190.57,78.93,78.93,118.58,78.93,190.57-28.03,139.66-78.93,190.57-118.58,78.93-190.57,78.93Z"/>
    <path d="m389.02,1c36.32,0,71.54,7.11,104.71,21.14,32.03,13.55,60.8,32.94,85.51,57.65,24.7,24.7,44.1,53.47,57.65,85.51,14.03,33.16,21.14,68.39,21.14,104.71s-7.11,71.54-21.14,104.71c-13.55,32.03-32.94,60.8-57.65,85.51-24.7,24.7-53.47,44.1-85.51,57.65-33.16,14.03-68.39,21.14-104.71,21.14s-71.54-7.11-104.71-21.14c-32.03-13.55-60.8-32.94-85.51-57.65s-44.1-53.47-57.65-85.51c-14.03-33.16-21.14-68.39-21.14-104.71s7.11-71.54,21.14-104.71c13.55-32.03,32.94-60.8,57.65-85.51,24.7-24.7,53.47-44.1,85.51-57.65C317.48,8.11,352.71,1,389.02,1m0-1C239.91,0,119.02,120.88,119.02,270s120.88,270,270,270,270-120.88,270-270S538.14,0,389.02,0h0Z"/>
  </g>
  <path class="cls-1" d="m122.52,314.5S-1.48,388.5.52,441.5s205.47,51.8,456-43c259-98,378-214,359-245-12.85-20.97-54.45-38.88-194-20,0,0,10,18,17,34,0,0,63-9,71,14,6.58,18.91-4,53.81-269.5,164.4,0,0-240.59,94.46-329.7,67.17-12.55-3.84-18.06-18.54-11.07-29.65,5.22-8.29,15-18.82,32.72-31.57,0,0-3.38-10.81-9.45-37.36Z"/>
</svg>