<?xml version="1.0" encoding="UTF-8"?>
<svg id="Layer_1" data-name="Layer 1" xmlns="http://www.w3.org/2000/svg" xmlns:xlink="http://www.w3.org/1999/xlink" viewBox="0 0 722 722">
  <defs>
    <style>
      .cls-1 {
        fill: url(#linear-gradient);
      }
    </style>
    <linearGradient id="linear-gradient" x1="487.75" y1="37.63" x2="224.47" y2="709.33" gradientUnits="userSpaceOnUse">
      <stop offset="0" stop-color="#bb00d4"/>
      <stop offset=".19" stop-color="#b700d4"/>
      <stop offset=".35" stop-color="#ad01d7"/>
      <stop offset=".5" stop-color="#9b04dd"/>
      <stop offset=".64" stop-color="#8207e4"/>
      <stop offset=".78" stop-color="#620ced"/>
      <stop offset=".91" stop-color="#3c11f8"/>
      <stop offset=".98" stop-color="#2615ff"/>
    </linearGradient>
  </defs>
  <path class="cls-1" d="M361,721.62c-48.68,0-95.91-9.54-140.37-28.34-42.94-18.16-81.51-44.17-114.63-77.29-33.12-33.12-59.12-71.69-77.29-114.63C9.91,456.91,.38,409.68,.38,361s9.53-95.91,28.34-140.37c18.16-42.94,44.17-81.51,77.29-114.63S177.69,46.88,220.63,28.71C265.09,9.91,312.32,.38,361,.38s95.91,9.53,140.37,28.34c42.94,18.16,81.51,44.17,114.63,77.29,33.12,33.12,59.12,71.69,77.29,114.63,18.8,44.46,28.34,91.69,28.34,140.37s-9.54,95.91-28.34,140.37c-18.16,42.94-44.17,81.51-77.29,114.63-33.12,33.12-71.69,59.12-114.63,77.29-44.46,18.8-91.69,28.34-140.37,28.34Z"/>
  <path d="M361,.75c48.63,0,95.81,9.52,140.23,28.31,42.9,18.14,81.42,44.12,114.51,77.2,33.08,33.08,59.06,71.61,77.2,114.51,18.79,44.41,28.31,91.59,28.31,140.23s-9.52,95.81-28.31,140.23c-18.14,42.9-44.12,81.42-77.2,114.51-33.09,33.09-71.61,59.06-114.51,77.2-44.41,18.79-91.59,28.31-140.23,28.31s-95.81-9.52-140.23-28.31c-42.9-18.14-81.42-44.12-114.51-77.2-33.09-33.08-59.06-71.61-77.2-114.51C10.27,456.81,.75,409.63,.75,361s9.52-95.81,28.31-140.23c18.14-42.9,44.12-81.42,77.2-114.51,33.08-33.09,71.61-59.06,114.51-77.2C265.19,10.27,312.37,.75,361,.75m0-.75C161.63,0,0,161.63,0,361s161.63,361,361,361,361-161.63,361-361S560.37,0,361,0h0Z"/>
</svg>