<?xml version="1.0" encoding="UTF-8"?>
<svg id="planete2" data-name="Calque 1" xmlns="http://www.w3.org/2000/svg" xmlns:xlink="http://www.w3.org/1999/xlink" viewBox="0 0 540 540">
  <defs>
    <style>
      #planete2 .cls-1 {
        fill: url(#Dégradé_sans_nom_7);
      }
    </style>
    <linearGradient id="Dégradé_sans_nom_7" data-name="Dégradé sans nom 7" x1="404.81" y1="503.49" x2="135.19" y2="36.51" gradientUnits="userSpaceOnUse">
      <stop offset="0" stop-color="#002955"/>
      <stop offset=".05" stop-color="#002e4d"/>
      <stop offset=".26" stop-color="#003f35"/>
      <stop offset=".48" stop-color="#004b23"/>
      <stop offset=".72" stop-color="#005219"/>
      <stop offset="1" stop-color="#005516"/>
    </linearGradient>
  </defs>
  <path class="cls-1" d="m270,539.5c-71.99,0-139.66-28.03-190.57-78.93S.5,341.99.5,270,28.53,130.34,79.43,79.43,198.01.5,270,.5s139.66,28.03,190.57,78.93,78.93,118.58,78.93,190.57-28.03,139.66-78.93,190.57-118.58,78.93-190.57,78.93Z"/>
  <path d="m270,1c36.32,0,71.54,7.11,104.71,21.14,32.03,13.55,60.8,32.94,85.51,57.65,24.7,24.7,44.1,53.47,57.65,85.51,14.03,33.16,21.14,68.39,21.14,104.71s-7.11,71.54-21.14,104.71c-13.55,32.03-32.94,60.8-57.65,85.51-24.7,24.7-53.47,44.1-85.51,57.65-33.16,14.03-68.39,21.14-104.71,21.14s-71.54-7.11-104.71-21.14c-32.03-13.55-60.8-32.94-85.51-57.65s-44.1-53.47-57.65-85.51C8.11,341.54,1,306.32,1,270s7.11-71.54,21.14-104.71c13.55-32.03,32.94-60.8,57.65-85.51,24.7-24.7,53.47-44.1,85.51-57.65C198.46,8.11,233.68,1,270,1m0-1C120.88,0,0,120.88,0,270s120.88,270,270,270,270-120.88,270-270S419.12,0,270,0h0Z"/>
</svg>